<?xml version="1.0" standalone="no"?>
<!DOCTYPE svg PUBLIC "-//W3C//DTD SVG 20010904//EN"
 "http://www.w3.org/TR/2001/REC-SVG-20010904/DTD/svg10.dtd">
<svg version="1.0" xmlns="http://www.w3.org/2000/svg"
 width="460.000000pt" height="460.000000pt" viewBox="0 0 433.000000 460.000000"
 preserveAspectRatio="xMidYMid meet">

<g transform="translate(0.000000,460.000000) scale(0.100000,-0.100000)"
fill="#fff" stroke="none">
<path d="M2375 4179 c4 -134 10 -247 13 -250 4 -4 19 -9 34 -13 26 -6 31 0
125 159 53 90 99 162 102 159 3 -2 8 -88 12 -190 4 -102 9 -187 11 -189 1 -1
17 -6 34 -9 l30 -7 123 212 c67 116 121 213 119 215 -3 2 -18 6 -34 9 -29 6
-30 3 -124 -172 l-95 -178 -8 204 c-4 113 -8 205 -10 207 -1 1 -16 5 -33 8
l-31 7 -100 -176 -100 -176 -7 38 c-3 21 -6 113 -6 206 0 137 -3 167 -14 167
-8 0 -22 3 -32 7 -16 6 -16 -10 -9 -238z"/>
<path d="M1681 4234 c-12 -9 -31 -30 -41 -46 l-18 -29 -6 26 c-5 21 -11 25
-29 19 -12 -3 -25 -9 -29 -13 -3 -3 18 -82 47 -176 52 -168 52 -170 80 -168
15 1 29 4 31 5 1 2 -13 55 -32 117 -19 62 -34 123 -34 135 0 31 24 61 60 76
20 8 29 18 26 27 -4 8 -6 21 -6 29 0 19 -20 18 -49 -2z"/>
<path d="M1320 4095 c-49 -15 -106 -65 -122 -105 -33 -86 17 -211 104 -256 96
-50 249 30 258 136 5 60 3 63 -30 43 -22 -13 -30 -25 -30 -46 0 -35 -47 -82
-90 -92 -38 -8 -96 11 -115 38 -14 20 -11 23 112 89 69 37 128 69 130 72 9 8
-27 64 -57 89 -17 15 -47 31 -68 37 -44 12 -36 12 -92 -5z m108 -65 c17 -11
32 -25 32 -32 0 -10 -150 -96 -200 -116 -4 -1 -10 11 -14 28 -13 67 49 140
119 140 17 0 45 -9 63 -20z"/>
<path d="M3030 4039 c-82 -33 -143 -153 -121 -237 15 -56 47 -91 105 -118 62
-29 88 -30 146 -3 l45 20 -25 19 c-14 11 -32 17 -40 13 -8 -3 -34 -8 -57 -11
-36 -3 -46 0 -80 31 -34 32 -38 40 -38 85 0 28 3 53 6 57 4 3 62 -28 130 -69
68 -42 127 -76 131 -76 4 0 17 19 29 42 29 57 23 133 -14 181 -48 63 -148 93
-217 66z m114 -53 c46 -19 76 -61 76 -105 0 -64 -8 -64 -113 0 -54 34 -96 66
-95 71 5 13 67 48 86 48 7 0 27 -6 46 -14z"/>
<path d="M1866 3964 c-21 -21 -20 -37 3 -58 38 -34 85 26 49 62 -16 16 -33 15
-52 -4z"/>
<path d="M3351 3764 c-174 -169 -181 -177 -165 -195 21 -23 32 -24 56 -2 17
15 18 14 18 -21 0 -127 148 -200 266 -131 88 51 130 166 90 243 -31 58 -96
102 -154 102 -25 0 -22 5 43 70 l69 70 -20 20 -21 21 -182 -177z m144 -58 c68
-29 95 -117 54 -182 -48 -78 -142 -98 -203 -43 -59 52 -58 135 3 193 45 43 93
54 146 32z"/>
<path d="M953 3849 c-44 -21 -76 -63 -88 -112 -7 -26 -9 -27 -25 -12 -15 14
-18 13 -34 -4 -11 -12 -15 -25 -10 -33 4 -7 60 -70 123 -140 l115 -128 22 21
23 22 -84 94 c-48 54 -86 106 -90 123 -14 66 70 142 131 120 16 -5 68 -52 116
-103 l87 -92 21 21 22 21 -87 96 c-118 130 -159 147 -242 106z"/>
<path d="M674 3564 c-9 -13 -15 -26 -13 -28 2 -1 14 -10 27 -18 l23 -16 -35
-6 c-88 -17 -149 -119 -125 -211 15 -56 91 -128 152 -144 119 -30 238 72 219
188 l-5 34 32 -19 c54 -31 81 -70 81 -116 0 -66 -60 -128 -124 -128 -30 0 -63
-39 -43 -52 23 -15 82 -8 121 15 81 47 124 148 96 231 -15 46 -49 74 -237 196
l-153 100 -16 -26z m130 -127 c84 -48 98 -143 32 -204 -28 -26 -44 -33 -76
-33 -104 0 -178 94 -143 182 30 75 111 99 187 55z"/>
<path d="M3750 3258 c-118 -50 -216 -92 -217 -93 -2 -1 14 -41 35 -90 43 -101
105 -178 158 -195 82 -27 194 -2 257 58 78 74 87 164 31 306 -20 50 -39 94
-43 98 -3 4 -103 -34 -221 -84z m220 -40 c44 -100 36 -172 -23 -229 -60 -57
-173 -77 -234 -39 -37 22 -53 44 -87 121 l-24 56 166 71 c92 39 170 71 173 72
4 0 17 -24 29 -52z"/>
<path d="M306 3209 c-27 -40 13 -81 52 -53 26 18 28 37 6 58 -21 22 -40 20
-58 -5z"/>
<path d="M431 3144 c-6 -15 -10 -27 -9 -28 14 -10 340 -147 342 -144 1 2 7 15
13 29 11 25 11 25 -146 92 -86 36 -163 69 -172 72 -10 4 -19 -3 -28 -21z"/>
<path d="M404 2974 c-72 -35 -99 -162 -48 -223 20 -24 34 -31 63 -31 50 0 75
20 127 101 46 72 68 84 98 53 37 -36 -4 -144 -54 -144 -15 0 -29 -25 -30 -52
0 -19 61 -6 91 19 41 35 59 79 59 143 0 44 -5 56 -29 81 -52 51 -113 34 -163
-45 -44 -71 -68 -96 -93 -96 -67 0 -58 117 11 142 28 10 43 31 44 61 0 12 -43
7 -76 -9z"/>
<path d="M3802 2799 c-26 -13 -55 -39 -70 -62 -63 -95 -12 -247 92 -273 22 -5
26 -3 26 15 0 21 -32 61 -50 61 -16 0 -40 57 -40 95 0 49 23 90 60 105 17 7
32 11 34 9 2 -2 13 -66 24 -143 12 -76 23 -140 26 -143 13 -13 91 12 123 40
94 83 80 230 -27 296 -48 29 -139 29 -198 0z m178 -56 c53 -36 70 -90 46 -146
-14 -34 -50 -67 -72 -67 -11 0 -25 61 -40 178 -6 50 -6 52 17 52 14 0 36 -8
49 -17z"/>
<path d="M375 2626 c-129 -58 -140 -251 -19 -322 55 -32 150 -37 200 -11 125
65 135 251 16 320 l-32 19 0 -32 c0 -23 9 -40 30 -60 26 -24 30 -35 30 -80 0
-46 -4 -56 -34 -86 -20 -20 -44 -34 -58 -34 l-25 0 5 150 5 150 -44 0 c-24 -1
-57 -7 -74 -14z m65 -105 c0 -32 -3 -86 -6 -120 -6 -57 -9 -61 -28 -55 -63 19
-98 95 -73 156 20 47 48 69 100 77 4 0 7 -25 7 -58z"/>
<path d="M3910 2360 l-185 -57 -3 -37 -3 -36 177 -85 c97 -47 178 -84 180 -83
1 2 4 16 6 31 3 27 -2 30 -144 95 -81 37 -148 69 -148 72 0 3 64 23 143 44 78
22 150 43 160 48 17 8 26 69 10 67 -5 -1 -91 -27 -193 -59z"/>
<path d="M390 2211 c-104 -32 -170 -115 -170 -215 0 -44 27 -192 39 -212 4 -7
78 5 231 39 124 27 226 50 228 52 6 6 -29 165 -45 203 -39 94 -110 143 -204
141 -30 0 -65 -4 -79 -8z m156 -67 c57 -27 79 -66 109 -194 l6 -26 -168 -37
c-93 -20 -176 -37 -185 -37 -12 0 -19 17 -28 69 -15 79 -8 128 21 165 51 65
172 94 245 60z"/>
<path d="M3742 2033 c-80 -39 -123 -147 -91 -230 11 -29 47 -73 60 -73 18 0
17 48 -3 88 -18 38 -19 49 -9 82 16 53 62 90 111 90 27 0 38 -4 35 -12 -35
-109 -85 -268 -85 -272 0 -9 64 -26 97 -26 144 0 225 192 127 300 -58 64 -170
89 -242 53z m197 -92 c27 -25 31 -36 31 -81 0 -46 -4 -56 -34 -86 -26 -26 -42
-34 -70 -34 -20 0 -36 3 -36 8 -1 16 65 222 71 222 4 0 21 -13 38 -29z"/>
<path d="M3558 1685 c-6 -14 -9 -27 -7 -28 13 -11 441 -228 444 -225 8 10 26
50 23 52 -10 8 -437 226 -442 226 -4 0 -12 -11 -18 -25z"/>
<path d="M613 1562 c-105 -59 -195 -110 -198 -114 -8 -8 13 -48 25 -48 9 0
181 92 357 192 49 27 51 30 41 53 -6 14 -16 25 -22 24 -6 0 -97 -48 -203 -107z"/>
<path d="M3495 1531 c-47 -22 -89 -64 -105 -106 -16 -41 -14 -118 4 -152 47
-90 162 -136 249 -99 39 17 92 71 106 109 15 40 14 113 -3 146 -22 42 -90 98
-133 110 -52 15 -72 14 -118 -8z m141 -73 c44 -30 77 -96 68 -135 -29 -115
-157 -139 -237 -44 -38 45 -43 83 -17 135 37 77 112 94 186 44z"/>
<path d="M790 1478 c-46 -24 -280 -206 -280 -218 0 -4 9 -15 20 -25 19 -17 23
-15 152 89 82 66 144 108 164 112 91 17 170 -107 114 -179 -11 -14 -74 -69
-140 -123 -66 -53 -120 -98 -120 -101 0 -12 22 -43 31 -43 17 0 264 206 284
236 32 49 31 105 -1 164 -52 96 -141 131 -224 88z"/>
<path d="M3147 1412 c-15 -17 -12 -23 53 -105 39 -47 70 -89 70 -92 0 -3 -18
-5 -40 -5 -111 0 -190 -110 -160 -221 16 -59 90 -133 148 -148 97 -26 212 53
212 145 l0 27 25 -23 25 -24 21 20 20 20 -168 212 c-92 116 -173 211 -179 211
-6 1 -18 -7 -27 -17z m162 -263 c48 -27 73 -63 78 -114 9 -80 -43 -135 -126
-135 -53 0 -116 53 -131 111 -21 76 41 158 119 159 13 0 40 -9 60 -21z"/>
<path d="M1125 1059 c-121 -94 -258 -200 -304 -236 l-83 -65 20 -21 c15 -14
25 -17 34 -10 7 5 147 113 311 239 295 227 298 229 276 247 -12 9 -24 17 -28
16 -3 0 -105 -77 -226 -170z"/>
<path d="M1347 1008 c5 -46 8 -110 8 -142 l0 -60 -112 -70 c-106 -67 -111 -71
-90 -83 34 -19 41 -17 131 41 l84 55 6 -37 c3 -20 8 -69 11 -108 6 -64 9 -73
32 -83 14 -7 28 -10 30 -7 3 2 -1 64 -7 136 -7 72 -11 132 -9 134 2 1 54 33
114 71 61 37 112 69 113 71 2 1 -10 10 -26 18 -30 15 -31 15 -108 -35 -43 -28
-83 -53 -90 -56 -9 -3 -14 21 -19 84 -9 114 -11 120 -46 139 l-30 15 8 -83z"/>
<path d="M2836 995 c-69 -24 -126 -96 -126 -160 0 -29 1 -29 33 -14 16 7 29
25 36 51 15 49 59 78 119 78 35 0 49 -6 74 -30 17 -17 29 -32 27 -34 -2 -2
-60 -29 -129 -60 -69 -31 -129 -61 -134 -66 -15 -15 39 -94 82 -118 52 -29
106 -28 170 4 83 41 117 119 92 208 -16 57 -63 114 -114 137 -49 22 -77 23
-130 4z m194 -206 c0 -69 -89 -132 -154 -109 -34 12 -66 38 -66 54 0 6 47 32
103 57 107 48 117 48 117 -2z"/>
<path d="M2595 902 c-11 -2 -23 -7 -27 -11 -4 -4 3 -53 17 -110 14 -56 25
-115 25 -130 0 -36 -32 -77 -65 -85 -21 -5 -26 -12 -23 -34 5 -40 33 -39 74 2
20 20 38 36 40 36 2 0 4 -9 4 -21 0 -18 4 -20 27 -14 16 4 30 9 32 11 4 4 -66
314 -78 344 -3 9 -15 14 -26 12z"/>
<path d="M1731 868 c-53 -35 -67 -69 -106 -245 -19 -89 -35 -164 -35 -166 0
-3 14 -7 30 -9 17 -3 30 -4 30 -3 0 17 65 292 76 323 16 43 53 72 93 72 45 0
99 -31 116 -66 18 -38 17 -43 -29 -258 -15 -65 -25 -120 -24 -121 2 -1 15 -5
30 -9 26 -6 26 -5 46 82 11 48 28 128 38 178 17 88 17 94 0 139 -26 66 -77 98
-165 103 -56 3 -71 0 -100 -20z"/>
<path d="M2368 863 c-23 -6 -34 -49 -18 -68 26 -31 70 -11 70 32 0 25 -25 42
-52 36z"/>
</g>
</svg>
